<svg xmlns="http://www.w3.org/2000/svg" viewBox="0 0 220 220"><defs><linearGradient id="a" x1="54" y1="26" x2="168" y2="190" gradientUnits="userSpaceOnUse"><stop stop-color="#f5d0fe"/><stop offset=".45" stop-color="#c084fc"/><stop offset="1" stop-color="#7e22ce"/></linearGradient><filter id="g"><feDropShadow dx="0" dy="14" stdDeviation="12" flood-color="#020617" flood-opacity=".5"/><feDropShadow dx="0" dy="0" stdDeviation="10" flood-color="#d946ef" flood-opacity=".55"/></filter></defs><ellipse cx="111" cy="193" rx="58" ry="10" fill="#020617" opacity=".32"/><g filter="url(#g)"><path d="M42 101c0-44 30-76 70-76 39 0 68 32 68 76v71c0 10-11 16-20 10l-13-9-15 12c-7 6-17 6-25 0l-15-12-16 12c-8 6-19 0-19-10v-74Z" fill="url(#a)"/><circle cx="88" cy="99" r="12" fill="#111827"/><circle cx="137" cy="99" r="12" fill="#111827"/><circle cx="92" cy="95" r="4" fill="#f8fafc"/><circle cx="141" cy="95" r="4" fill="#f8fafc"/><path d="M92 137c12 10 28 10 41 0" fill="none" stroke="#3b0764" stroke-width="8" stroke-linecap="round"/></g></svg>
