<svg xmlns="http://www.w3.org/2000/svg" viewBox="0 0 320 220"><defs><linearGradient id="a" x1="82" y1="38" x2="248" y2="186" gradientUnits="userSpaceOnUse"><stop stop-color="#22d3ee"/><stop offset=".48" stop-color="#7c3aed"/><stop offset="1" stop-color="#ec4899"/></linearGradient><linearGradient id="b" x1="134" y1="34" x2="206" y2="78" gradientUnits="userSpaceOnUse"><stop stop-color="#f8fafc"/><stop offset="1" stop-color="#a7f3d0"/></linearGradient><filter id="g"><feDropShadow dx="0" dy="14" stdDeviation="11" flood-color="#020617" flood-opacity=".5"/><feDropShadow dx="0" dy="0" stdDeviation="8" flood-color="#22d3ee" flood-opacity=".38"/></filter></defs><ellipse cx="158" cy="198" rx="96" ry="12" fill="#020617" opacity=".34"/><g filter="url(#g)"><path d="M146 83c31-7 58 8 68 37l8 23c4 12-2 25-14 30l-38 15c-15 6-32-1-39-15l-18-39c-9-21 4-45 33-51Z" fill="url(#a)"/><path d="M137 61c0-25 19-43 44-43 26 0 46 18 46 43s-20 43-46 43c-25 0-44-18-44-43Z" fill="#181441"/><path d="M151 58c5-15 17-24 33-24 17 0 30 10 34 26-10 8-21 12-34 12-13 0-24-5-33-14Z" fill="url(#b)"/><path d="M126 117c-28 1-54 12-78 34M213 126c23-12 48-13 74-4" fill="none" stroke="#67e8f9" stroke-width="18" stroke-linecap="round"/><path d="M147 172l-52 20M177 171l58 24" fill="none" stroke="#f0abfc" stroke-width="19" stroke-linecap="round"/><circle cx="178" cy="58" r="5" fill="#0f172a"/></g></svg>
