<svg xmlns="http://www.w3.org/2000/svg" viewBox="0 0 320 200"><defs><linearGradient id="a" x1="72" y1="44" x2="220" y2="176" gradientUnits="userSpaceOnUse"><stop stop-color="#7dd3fc"/><stop offset=".55" stop-color="#8b5cf6"/><stop offset="1" stop-color="#d946ef"/></linearGradient><linearGradient id="b" x1="118" y1="38" x2="186" y2="84" gradientUnits="userSpaceOnUse"><stop stop-color="#f8fafc"/><stop offset="1" stop-color="#67e8f9"/></linearGradient><filter id="g"><feDropShadow dx="0" dy="12" stdDeviation="10" flood-color="#020617" flood-opacity=".45"/><feDropShadow dx="0" dy="0" stdDeviation="7" flood-color="#8b5cf6" flood-opacity=".42"/></filter></defs><ellipse cx="154" cy="178" rx="86" ry="12" fill="#020617" opacity=".35"/><g filter="url(#g)"><path d="M143 82c23-3 45 11 52 34l8 26c3 10-2 21-12 25l-35 14c-13 5-28 0-34-13l-18-39c-8-19 7-44 39-47Z" fill="url(#a)"/><path d="M134 65c0-24 18-42 42-42s43 18 43 42-19 42-43 42-42-18-42-42Z" fill="#1e1b4b"/><path d="M146 62c4-15 16-24 31-24 16 0 28 10 32 25-10 8-20 12-32 12-12 0-23-4-31-13Z" fill="url(#b)"/><path d="M120 114c-27 2-45 13-54 34" fill="none" stroke="#7dd3fc" stroke-width="18" stroke-linecap="round"/><path d="M203 124c25 9 43 25 54 47" fill="none" stroke="#d946ef" stroke-width="18" stroke-linecap="round"/><path d="M132 167l-23 24M174 164l35 22" fill="none" stroke="#dbeafe" stroke-width="18" stroke-linecap="round"/><circle cx="171" cy="62" r="5" fill="#0f172a"/></g></svg>
